<?xml version="1.0" encoding="UTF-8" standalone="no"?>
<svg width="207px" height="216px" viewBox="0 0 207 216" version="1.1" xmlns="http://www.w3.org/2000/svg" xmlns:xlink="http://www.w3.org/1999/xlink">
    <!-- Generator: sketchtool 3.6.1 (26313) - http://www.bohemiancoding.com/sketch -->
    <title>ninja sx</title>
    <desc>Created with sketchtool.</desc>
    <defs>
        <filter x="-50%" y="-50%" width="200%" height="200%" filterUnits="objectBoundingBox" id="filter-1">
            <feOffset dx="0" dy="2" in="SourceAlpha" result="shadowOffsetOuter1"></feOffset>
            <feGaussianBlur stdDeviation="5" in="shadowOffsetOuter1" result="shadowBlurOuter1"></feGaussianBlur>
            <feColorMatrix values="0 0 0 0 0   0 0 0 0 0   0 0 0 0 0  0 0 0 0.07 0" in="shadowBlurOuter1" type="matrix" result="shadowMatrixOuter1"></feColorMatrix>
            <feMerge>
                <feMergeNode in="shadowMatrixOuter1"></feMergeNode>
                <feMergeNode in="SourceGraphic"></feMergeNode>
            </feMerge>
        </filter>
    </defs>
    <g id="homepage" stroke="none" stroke-width="1" fill="none" fill-rule="evenodd" filter="url(#filter-1)">
        <g id="new-log-out-3" transform="translate(-331.000000, -5543.000000)">
            <g id="Group-39" transform="translate(-1.000000, 4799.000000)">
                <g id="sez-highlights">
                    <g id="Group-38" transform="translate(341.000000, 350.000000)">
                        <g id="ninja-sx" transform="translate(0.589348, 401.955224)">
                            <g id="ninja-right" transform="translate(93.913110, 107.500000) scale(-1, 1) translate(-93.913110, -107.500000) translate(0.413110, 0.000000)">
                                <path d="M26.2161162,55.3279312 L23.8060724,57.7988733 C23.7519277,57.9793219 23.6977829,58.1597704 23.6460446,58.3498429 L23.0504521,58.1874392 C24.0779995,54.4112526 25.6987329,52.5634594 27.0367102,51.6576077 C27.0716035,46.7770759 27.1016839,40.550398 27.0607746,37.806377 C22.661813,36.939021 15.6626995,44.409591 15.2175092,53.2684117 C15.0695135,56.215738 15.2584185,58.9693829 15.2584185,58.9693829 C15.377537,61.5630301 18.3230124,63.5359342 21.8376093,63.3747335 C25.3510031,63.2135328 27.2641182,56.1122809 26.2161162,55.3279312" id="Fill-1" fill="#000000"></path>
                                <path d="M24.5653024,62.9019583 L29.0617245,59.6743352 L30.5645426,51.0404737 C30.5645426,51.0404737 23.8517947,50.9827301 21.6823943,63.1196995 L24.5653024,62.9019583" id="Fill-2" fill="#000000"></path>
                                <path d="M48.8173452,136.354142 C48.8173452,136.354142 40.2660817,122.288779 25.3907093,130.520842 L21.9771825,136.089484 L48.8173452,136.354142" id="Fill-3" fill="#0B5E45"></path>
                                <path d="M52.0503894,139.065682 C52.0503894,139.065682 36.6070986,126.743452 23.2405604,142.159773 L21.6920201,149.843272 L52.0503894,139.065682" id="Fill-4" fill="#369B85"></path>
                                <path d="M56.5022925,89.3893993 C59.7112724,87.0134934 100.737364,93.2750581 100.737364,93.2750581 C100.737364,93.2750581 78.4826615,133.430875 114.67904,153.682014 C114.67904,153.682014 89.8302015,161.965806 71.6580144,168.293535 C71.6580144,168.293535 60.5535243,171.6186 51.8181685,152.074819 C43.0816095,132.529836 47.6153314,110.802627 47.6153314,110.802627 L56.5022925,89.3893993" id="Fill-5" fill="#1C1C1C"></path>
                                <path d="M71.2164338,154.169226 C64.3448612,119.496638 79.8519225,92.6122104 79.8519225,92.6122104 C79.8519225,92.6122104 79.305662,91.4741816 75.763391,89.9764586 C71.6652337,89.5265402 69.3851374,86.0895969 66.1111838,85.9079453 C50.4224368,86.2892933 47.6153314,110.802627 47.6153314,110.802627 C47.6153314,110.802627 43.0816095,132.529836 51.8181685,152.074819 C52.6640301,153.967123 53.5327528,155.640483 54.4098981,157.127379 L71.2164338,154.169226" id="Fill-6" fill="#030202"></path>
                                <path d="M76.6309105,146.873089 C91.5207215,143.388026 99.6087465,144.159143 101.845527,143.056001 C101.845527,143.054798 94.4252874,131.325642 94.1232799,123.607256 C89.4126852,123.193428 63.6433857,120.499932 46.7249508,131.342484 C46.5889872,137.464502 47.901697,144.394929 51.2911595,150.834536 C55.3676588,150.680554 63.550738,149.933497 76.6309105,146.873089 Z" id="Fill-7" fill="#369B85"></path>
                                <path d="M69.5191043,148.414805 C68.1486681,137.278768 68.436747,131.878368 70.0920725,123.723 C62.1971519,124.698459 53.7072852,126.867701 46.7249508,131.342484 C46.5889872,137.464502 47.901697,144.394929 51.2911595,150.834536 C54.5712029,150.710638 60.509918,150.202774 69.5191043,148.414805 Z" id="Fill-7-Copy" fill="#0B5E45" opacity="0.312966418"></path>
                                <path id="Fill-8" fill="#AB2219"></path>
                                <path d="M94.2448049,127.934412 L48.6681463,135.824826 L94.4902611,129.515142 L94.2448049,127.934412" id="Fill-9" fill="#369B85" style="mix-blend-mode: multiply;"></path>
                                <path id="Fill-10" fill="#AB2219"></path>
                                <path d="M50.6847381,139.715297 L50.6847381,139.715297 L92.205352,140.723403 L92.2173841,139.923414 L50.6847381,139.715297" id="Fill-11" fill="#369B85" style="mix-blend-mode: multiply;"></path>
                                <path id="Fill-12" fill="#AB2219"></path>
                                <path d="M83.7864423,134.01192 L47.8643973,137.966149 L83.851416,134.650707 L83.8189291,134.331915 L83.7864423,134.01192" id="Fill-13" fill="#369B85" style="mix-blend-mode: multiply;"></path>
                                <path d="M59.1060542,15.2346695 C57.9220886,12.92974 57.1989552,11.5114145 57.1026978,11.2900642 C55.7226079,8.08168903 53.9250016,5.0501534 50.4067949,3.51754372 C50.2395478,3.66190256 50.0735038,3.80385542 49.9074599,3.94701127 C50.0217655,4.30670538 50.3502437,4.84323906 50.2178899,4.99481584 C49.4321891,5.88743467 48.8077195,4.96113211 48.3444809,4.59301707 C44.325736,1.4050927 39.5465579,0.625554971 34.602539,0.321198418 C34.219916,0.297138611 33.8312769,0.358491118 33.2128233,0.393377837 C34.4810141,4.29708145 37.6851811,7.12170274 38.9774362,11.1036007 L31.3478369,11.1036007 C33.781945,12.0888498 35.4363684,12.7589154 37.3723447,13.5432651 C34.3991953,15.429554 31.5499774,16.9356978 28.3446071,18.2445513 C32.5787279,22.2204344 37.5756883,24.4098768 43.4064781,25.0919723 C42.3741179,27.0829213 40.3106007,27.0059299 38.7331831,28.3268133 C41.4717051,28.8753769 43.8805457,28.353279 46.3868468,27.614643 L59.14937,15.2082037 L59.1060542,15.2346695" id="Fill-14" fill="#030202"></path>
                                <path d="M84.0679951,7.89763151 C74.8284914,7.89763151 66.2519602,10.5971418 59.14937,15.2082037 L46.3868468,27.614643 L46.6226773,27.5460725 C42.2622187,34.0915429 39.7258372,41.8520335 39.7258372,50.1815386 C39.7258372,73.5351898 59.5789185,92.4654456 84.0679951,92.4654456 C108.557072,92.4654456 128.410153,73.5351898 128.410153,50.1815386 C128.410153,26.8290903 108.557072,7.89763151 84.0679951,7.89763151" id="Fill-15" fill="#1C1C1C"></path>
                                <path d="M39.2060474,50.2934167 C39.2060474,27.856444 57.8414731,9.49881163 81.4317465,7.97943485 C82.0598258,8.39807548 82.6842955,8.82513705 83.3003426,9.27385244 C106.067616,25.8462472 111.960973,56.5333275 96.4635371,77.8166324 C91.728878,84.3187951 85.5407327,89.181282 78.5861382,92.3403346 C56.3603129,89.5915017 39.2060474,71.8209286 39.2060474,50.2934167" id="Fill-16" fill="#030202"></path>
                                <path d="M25.5290793,162.392867 C20.8509714,163.854501 20.2662079,170.869137 21.7281166,174.377057 C23.1900253,177.884977 45.7022163,208.285745 45.7022163,208.285745 L55.6431955,208.285745 L42.1936354,175.83869 L90.4354197,172.038444 L177.853951,201.563435 L177.561569,209.162725 C177.561569,209.162725 169.959644,210.916685 169.959644,214.132278 L186.333022,214.132278 L186.625403,199.809476 C186.625403,199.809476 187.073,192.9801 182.532059,191.332003 C176.460626,189.128124 108.462017,151.576781 108.462017,151.576781 L67.630847,151.576781 C67.630847,151.576781 30.2071871,160.931234 25.5290793,162.392867 Z" id="Fill-20" fill="#030202"></path>
                                <path d="M90.4354197,172.038444 L177.853951,201.563435 L177.561569,209.162725 C177.561569,209.162725 169.959644,210.916685 169.959644,214.132278 L186.333022,214.132278 L186.625403,199.809476 C186.625403,199.809476 187.874343,192.478453 182.532059,191.332003 C176.217576,189.976233 106.858129,148.469457 106.858129,148.469457 L71.5641635,151.375882 C71.5641635,151.375882 72.8094931,165.734775 90.4354197,172.038444" id="Fill-21" fill="#1C1C1C"></path>
                                <path d="M31.3767141,208.285745 C31.3767141,208.285745 32.7628201,201.700576 43.5099548,201.700576 C54.2570895,201.700576 55.6431955,208.285745 55.6431955,208.285745 L31.3767141,208.285745 Z" id="Fill-22" fill="#030202"></path>
                                <path d="M59.9326643,88.4197891 L19.1869222,85.0357773 L24.0479191,62.6553453 L16.4664484,61.0517592 C16.4664484,61.0517592 3.33694402,81.2331249 1.54415062,84.6881131 C-1.33996065,90.2483344 0.663395739,94.1111364 7.98737791,97.0319969 L53.6049458,110.562029 L59.9326643,88.4197891" id="Fill-23" fill="#030202"></path>
                                <path d="M96.4454888,93.4362588 L155.924117,91.6859079 L156.738695,100.442474 L90.2140277,111.878101 L96.4454888,93.4362588" id="Fill-24" fill="#1C1C1C"></path>
                                <path d="M158.802212,100.692696 C158.802212,100.691493 168.68664,99.8169195 169.062044,91.1854639 L168.749208,91.1854639 L162.55625,90.6850199 L158.802212,100.692696" id="Fill-25" fill="#303030"></path>
                                <path d="M163.494759,74.2341272 L155.191358,93.033257 L155.198577,93.035663 C154.714884,93.8067798 154.423706,94.7114286 154.423706,95.6882567 C154.423706,98.4515255 156.664096,100.692696 159.427885,100.692696 C162.191675,100.692696 164.433268,98.4515255 164.433268,95.6882567 C164.433268,95.6882567 170.939063,75.9231256 163.494759,74.2341272" id="Fill-26" fill="#1C1C1C"></path>
                            </g>
                            <g id="eyes" transform="translate(66.824185, 29.902071)">
                                <path d="M20.3414643,34.4622677 C19.9596188,36.1120031 18.4096,37.3478115 16.5527943,37.3478115 C14.4094556,37.3478115 12.6723862,35.7022571 12.6723862,33.6726406 C12.6723862,33.0771351 12.8254818,32.5168701 13.0905695,32.0193214 L3.00949066,27.848991 C3.00949066,27.848991 1.14791934,37.256425 7.77511325,40.8402093 C14.4023072,44.4239937 19.3913183,40.0189254 19.3913183,40.0189254" id="Fill-1" fill="#D14B42"></path>
                                <path d="M36.9728914,31.1412942 C36.9728914,30.6192563 36.5511338,30.1957725 36.0298938,30.1957725 C35.5092496,30.1957725 35.0868963,30.6192563 35.0868963,31.1412942 C35.0868963,31.6639295 35.5092496,32.0874133 36.0298938,32.0874133 C36.5511338,32.0874133 36.9728914,31.6639295 36.9728914,31.1412942" id="Fill-2" fill="#FEF8F1"></path>
                                <path d="M17.7864949,35.2972895 C17.7864949,34.7752516 17.3641416,34.3517677 16.8434973,34.3517677 C16.3222574,34.3517677 15.8999041,34.7752516 15.8999041,35.2972895 C15.8999041,35.8199247 16.3222574,36.2434086 16.8434973,36.2434086 C17.3641416,36.2434086 17.7864949,35.8199247 17.7864949,35.2972895" id="Fill-3" fill="#FEF8F1"></path>
                                <path d="M55.9960654,12.9912183 L38.5294629,25.4102257 C39.0090037,26.1245934 39.3306832,26.9500584 39.4301656,27.8525748 C39.7750775,30.9883861 37.3708209,33.8267433 34.0593089,34.1928866 C31.264867,34.5022867 28.7241944,32.9475216 27.7901324,30.5708752 L20.3283588,34.1564515 C20.2038569,35.2047084 19.6105369,36.1430626 18.7336624,36.7505141 L19.3913183,40.0189254 C19.6730857,39.771047 19.991191,39.7835902 19.991191,39.7835902 C19.991191,39.7835902 21.5572938,41.8502392 24.42322,43.9330152 C25.7552116,44.6951667 27.2951034,45.5755831 28.9279248,46.5091589 C33.7846899,48.5973106 40.4232022,49.3534891 48.3567724,44.9836613 C65.5916464,35.4908139 55.9960654,12.9912183 55.9960654,12.9912183" id="Fill-4" fill="#FF6B5A"></path>
                                <path d="M23.5487283,30.8265185 L60.4322643,8.14713646 L55.1209779,0.232945984 L23.5487283,30.8265185" id="Fill-5" fill="#363535"></path>
                                <path d="M14.9813303,30.9137239 L0.119140565,25.0602095 L1.53929609,21.8407765 L14.9813303,30.9137239" id="Fill-6" fill="#303030"></path>
                                <path d="M21.4173781,33.4225515 L56.9693181,12.1678929 L59.3707451,20.6111348 L21.0033239,35.2529413 L21.4173781,33.4225515 Z" id="Path-745" fill-opacity="0.400000006" fill="#D15D50" style="mix-blend-mode: multiply;"></path>
                                <path d="M15.5562644,34.4571767 C15.2104921,34.4571767 1.45049856,29.7950197 1.45049856,29.7950197 L2.77534106,26.8998189 L14.4796799,31.9644517 C14.4796799,31.9644517 15.9020367,34.4571767 15.5562644,34.4571767 Z" id="Path-746" fill-opacity="0.400000006" fill="#D15D50" style="mix-blend-mode: multiply;"></path>
                            </g>
                        </g>
                    </g>
                </g>
            </g>
        </g>
    </g>
</svg>